<svg id="Продукция_ТМ_ВЕРЕС-0" data-name="Продукция ТМ ВЕРЕС-0" xmlns="http://www.w3.org/2000/svg" xmlns:xlink="http://www.w3.org/1999/xlink" width="215.255" height="109.539" viewBox="0 0 215.255 109.539">
  <defs>
    <linearGradient id="linear-gradient" x1="-0.092" y1="0.504" x2="1.095" y2="0.504" gradientUnits="objectBoundingBox">
      <stop offset="0" stop-color="#ffd36e"/>
      <stop offset="0.057" stop-color="#f3c462"/>
      <stop offset="0.156" stop-color="#daa446"/>
      <stop offset="0.285" stop-color="#b1761d"/>
      <stop offset="0.317" stop-color="#a66a12"/>
      <stop offset="0.372" stop-color="#ad7119"/>
      <stop offset="0.457" stop-color="#bf862b"/>
      <stop offset="0.561" stop-color="#deaa4b"/>
      <stop offset="0.647" stop-color="#ffd36e"/>
      <stop offset="0.733" stop-color="#e2b559"/>
      <stop offset="0.914" stop-color="#af8233"/>
      <stop offset="1" stop-color="#9c7025"/>
    </linearGradient>
    <linearGradient id="linear-gradient-2" x1="-2.814" y1="0.513" x2="3.831" y2="0.513" xlink:href="#linear-gradient"/>
    <linearGradient id="linear-gradient-3" x1="-0.141" y1="0.505" x2="1.145" y2="0.505" xlink:href="#linear-gradient"/>
  </defs>
  <path id="Контур_15993" data-name="Контур 15993" d="M196.325,77.918,214.31,22.476C178.269,8.739,142.086,1.8,106.683,1.8,85.016,1.8,50.745,4,2.1,22.476L20.085,77.989A264.534,264.534,0,0,1,74.819,63.473L76.8,63.19,76.235,65.1a32.978,32.978,0,0,0-1.558,10.2,33.563,33.563,0,1,0,67.126,0,34.739,34.739,0,0,0-1.629-10.409l-.637-1.841,1.983.283A243.877,243.877,0,0,1,196.325,77.918Z" transform="translate(-0.613 -0.525)" fill="#026937" fill-rule="evenodd"/>
  <path id="Контур_15994" data-name="Контур 15994" d="M215.255,21.242C163.636,1.345,123.913,0,106.07,0,87.66,0,51.548,1.345,0,21.242l18.764,57.85A258.318,258.318,0,0,1,74.49,64.152,34.84,34.84,0,1,0,142.536,74.7a33.917,33.917,0,0,0-1.7-10.763,238.384,238.384,0,0,1,55.726,15.153ZM132.906,57.991a30.294,30.294,0,1,1-50.627.071c-31.793,3.965-60.4,15.224-60.4,15.224L5.877,24C52.114,6.16,89.784,4.107,106.211,4.107c16,0,57.142,1.912,103.45,19.684L193.8,73.215S164.84,61.886,132.906,57.991Z" fill-rule="evenodd" fill="url(#linear-gradient)"/>
  <g id="Сгруппировать_9890" data-name="Сгруппировать 9890" transform="translate(8.001 5.735)">
    <path id="Контур_15995" data-name="Контур 15995" d="M140.374,97.709c-.566.354-1.133.708-1.629.991a15.126,15.126,0,0,1-3.4,1.7c-4.036.779-6.939-.92-7.718-2.9a2.592,2.592,0,0,1-.071-2.053,1.141,1.141,0,0,1,.283-.5,1.2,1.2,0,0,0,.991.637,1.009,1.009,0,0,0,.85-.425,1,1,0,0,0,.142-.991,1.975,1.975,0,0,0-1.133-1.133,2.948,2.948,0,0,0-1.77-.142,2.649,2.649,0,0,0-1.912,1.841,5.207,5.207,0,0,0-.071,2.761,7.35,7.35,0,0,0,3.045,4.107,8.877,8.877,0,0,0,6.585,1.062.638.638,0,0,1-.071.354,4.9,4.9,0,0,0,1.983,4.957,5.277,5.277,0,0,0,3.824.921,5.223,5.223,0,0,0,3.4-2.2c-.637,0-1.416,0-2.124-.071a5.964,5.964,0,0,1-1.912-.566,2.415,2.415,0,0,1-1.416-2.053,6.241,6.241,0,0,1,1.062-3.47,14.059,14.059,0,0,1,2.124-2.478,12.329,12.329,0,0,1,.991-.85,2.868,2.868,0,0,1,1.487-.5c.212,0,.283-.071.283-.142s-.071-.142-.212-.212a3.909,3.909,0,0,0-1.629.283C141.648,97,140.94,97.355,140.374,97.709Zm7.435.212c.566-.354,1.133-.708,1.629-.991a15.127,15.127,0,0,1,3.4-1.7c4.036-.779,6.939.921,7.718,2.832a2.592,2.592,0,0,1,.071,2.053,1.27,1.27,0,0,1-.354.5,1.2,1.2,0,0,0-.991-.637,1.08,1.08,0,0,0-.85.5,1,1,0,0,0-.142.991,1.975,1.975,0,0,0,1.133,1.133,2.948,2.948,0,0,0,1.77.142A2.776,2.776,0,0,0,163.1,100.9a6.035,6.035,0,0,0,.142-2.761A6.986,6.986,0,0,0,160.2,94.1a8.876,8.876,0,0,0-6.585-1.062.638.638,0,0,1,.071-.354,4.9,4.9,0,0,0-1.983-4.957,5.456,5.456,0,0,0-3.894-.921,5.223,5.223,0,0,0-3.4,2.2c.637,0,1.416,0,2.2.071a5.1,5.1,0,0,1,1.841.566,2.415,2.415,0,0,1,1.416,2.053,6.241,6.241,0,0,1-1.062,3.47,9.9,9.9,0,0,1-2.124,2.478,15.554,15.554,0,0,1-1.275.991,2.7,2.7,0,0,1-1.345.283c-.142,0-.212.071-.212.142a.319.319,0,0,0,.212.212,3.453,3.453,0,0,0,1.416-.212A18.117,18.117,0,0,0,147.808,97.921ZM144.2,94.1c-.354-.566-.708-1.133-.991-1.629a15.126,15.126,0,0,1-1.7-3.4c-.779-4.036.92-6.939,2.9-7.718a2.592,2.592,0,0,1,2.053-.071,1.27,1.27,0,0,1,.5.354,1.2,1.2,0,0,0-.637.991,1.08,1.08,0,0,0,.5.85,1,1,0,0,0,.991.142,1.975,1.975,0,0,0,1.133-1.133,2.9,2.9,0,0,0,.142-1.77,2.649,2.649,0,0,0-1.841-1.912,6.035,6.035,0,0,0-2.761-.142,7.35,7.35,0,0,0-4.107,3.045,8.877,8.877,0,0,0-1.062,6.585,1.052,1.052,0,0,1-.425-.071A4.78,4.78,0,0,0,133.93,90.2a5.277,5.277,0,0,0-.921,3.824,4.97,4.97,0,0,0,2.2,3.4,11.079,11.079,0,0,1,.142-2.124,6.321,6.321,0,0,1,.5-1.841,2.289,2.289,0,0,1,2.053-1.416,6.865,6.865,0,0,1,3.47,1.062,14.059,14.059,0,0,1,2.478,2.124,12.851,12.851,0,0,1,.85,1.062,2.821,2.821,0,0,1,.425,1.487c0,.212.071.212.212.212.071,0,.142-.142.142-.212a2.782,2.782,0,0,0-.071-1.062A8.069,8.069,0,0,0,144.2,94.1Zm-.212,7.435c.354.566.708,1.133.991,1.629a11.681,11.681,0,0,1,1.7,3.4c.85,4.036-.85,6.939-2.832,7.789a2.581,2.581,0,0,1-2.053.071,1.27,1.27,0,0,1-.5-.354,1.2,1.2,0,0,0,.637-.991,1.08,1.08,0,0,0-.5-.85,1.1,1.1,0,0,0-1.062-.142,1.874,1.874,0,0,0-1.062,1.133,2.948,2.948,0,0,0-.142,1.77,2.776,2.776,0,0,0,1.841,1.912,5.207,5.207,0,0,0,2.761.071,6.986,6.986,0,0,0,4.036-3.045,8.889,8.889,0,0,0,.991-6.585,1.052,1.052,0,0,1,.425.071,4.775,4.775,0,0,0,4.886-2.053,5.414,5.414,0,0,0,.85-3.894,5.223,5.223,0,0,0-2.2-3.4c0,.637,0,1.416-.071,2.2a5.049,5.049,0,0,1-.5,1.841,2.416,2.416,0,0,1-2.053,1.487,6.241,6.241,0,0,1-3.47-1.062,14,14,0,0,1-2.549-2.124,6.8,6.8,0,0,1-1.133-1.558,2.184,2.184,0,0,1-.142-1.2c-.071-.071-.142-.142-.212-.071s-.142.142-.142.212v.566a1.2,1.2,0,0,0,.071.5C143.064,99.9,143.56,100.754,143.985,101.532Z" transform="translate(-44.429 -28.672)" fill-rule="evenodd" fill="url(#linear-gradient-2)"/>
    <path id="Контур_15996" data-name="Контур 15996" d="M210.552,27.43C166.439,10.437,124.875,8.1,109.581,8.1,93.862,8.1,55.413,10.224,11.3,27.218L25.957,72.96A293.786,293.786,0,0,1,89.472,58.3a28.477,28.477,0,1,0,42.7-.212c32.784,3.4,63.8,15.082,63.8,15.082ZM128.2,56.32a27.02,27.02,0,1,1-34.554.071c-33.7,2.691-66.842,14.87-66.842,14.87l-13.6-43.547a282.425,282.425,0,0,1,96.44-18.268c14.586,0,56.858,2.266,99.06,18.481l-13.6,43.193S161.483,59.011,128.2,56.32Z" transform="translate(-11.3 -8.1)" fill-rule="evenodd" fill="url(#linear-gradient-3)"/>
  </g>
  <path id="Контур_15997" data-name="Контур 15997" d="M29.608,35.348c4.39-1.133,2.832-.354,8.143-1.841,4.886-1.345,7.152-2.832,10.409-3.47,3.965-.779,7.222-.354,9.559.85a6.46,6.46,0,0,1,3.611,4.744A7.146,7.146,0,0,1,58,42.571c-1.983,1.345-5.948,2.337-6.3,2.9h0c.85.637,8.355-1.2,11.612,1.2A8.66,8.66,0,0,1,66.5,51.492a8.913,8.913,0,0,1-1.7,7.576,14.048,14.048,0,0,1-8.568,4.886c-1.983.354-3.682.425-5.594.708a26.159,26.159,0,0,0-6.656,1.983c-1.345.566-2.691,1.133-4.107,1.629-1.841.637-1.912-.779-.5-1.983,2.407-1.912,1.487-7.081.566-9.984C38.53,51.776,37.822,48.8,36.335,44.27c-.991-3.186-1.7-6.585-6.3-6.443C28.263,37.756,27.7,35.844,29.608,35.348Zm15.578,9.984c.354-.071.779-.212,1.062-.283,5.169-.92,7.435-4.6,6.656-7.576-.637-2.549-3.54-4.532-8.5-3.328a17.482,17.482,0,0,0-2.053.708C43.486,39.1,44.053,41.154,45.186,45.332Zm.779,2.761c1.2,4.39,1.77,6.514,2.974,10.9.425,1.7,2.62,2.62,4.319,2.266,2.974-.566,6.3-2.478,5.735-7.364-.566-5.311-5.948-7.435-11.258-6.231-.708.142-1.062.283-1.77.425" transform="translate(-8.295 -8.654)" fill="#fff" fill-rule="evenodd"/>
  <path id="Контур_15998" data-name="Контур 15998" d="M80.529,23.373c2.266-.5,2.337.566,10.621-1.2a152.207,152.207,0,0,1,15.507-2.478c2.832-.212,3.824,1.133,3.4,2.337-.425,1.133-1.275,3.186-1.983,5.027a1.289,1.289,0,0,1-2.478-.425,3.972,3.972,0,0,0-4.107-3.116c-3.045.283-4.957.637-8,1.062.637,4.532.991,6.868,1.7,11.4,1.912-.283,2.9-.425,4.815-.637,3.045-.5,4.532-.708,5.24-2.832a.86.86,0,0,1,1.7.212,24.4,24.4,0,0,0,.5,5.24,3.86,3.86,0,0,1,0,2.2c-.283.85-1.416.637-1.983-.354-.566-1.062-2.266-1.841-4.39-1.558-2.2.283-3.257.425-5.452.708.354,2.407.5,3.611.85,5.948.425,2.761.991,4.39,1.77,5.311a3.363,3.363,0,0,0,2.549,1.2,16.652,16.652,0,0,0,3.824-.425,7.509,7.509,0,0,0,5.24-3.257c1.275-1.841,2.549-1.345,2.407-.142-.5,4.461-1.983,5.948-3.894,6.443a12.96,12.96,0,0,1-3.328.212,46.325,46.325,0,0,0-10.55.85c-1.912.354-4.248,1.275-6.373,1.841-1.345.354-2.478.283-2.691-.212-.283-.637.354-.991.779-1.275,2.761-1.983,3.045-5.665,2.62-7.93-1.062-6.089-1.558-9.063-2.549-15.153-.354-1.7-.708-4.107-2.053-5.523a5.2,5.2,0,0,0-3.186-1.133,1.729,1.729,0,0,1-1.629-1.2C79.325,24.081,79.608,23.585,80.529,23.373Z" transform="translate(-23.175 -5.742)" fill="#fff" fill-rule="evenodd"/>
  <path id="Контур_15999" data-name="Контур 15999" d="M145.719,51.95c-.779-.071-1.345-.283-2.124-.425a19.292,19.292,0,0,0-7.789.212c-.779.142-1.983.5-2.691.566-1.062.071-1.487-.283-1.558-.637a1.46,1.46,0,0,1,.921-1.133,5.161,5.161,0,0,0,1.912-1.558,8.768,8.768,0,0,0,1.416-3.894c-.212-7.01-.354-10.48-.566-17.489-.212-3.965-.142-5.948-3.682-7.222-1.7-.566-2.337-2.2-.212-2.337.708-.071,1.558.071,2.337.071,1.275,0,2.62.071,3.965,0,4.178-.071,4.886-.991,11.188-.637,7.718.425,16.073,4.178,14.657,11.4-1.275,6.514-9.7,8.851-15.578,7.93-2.478-.425-2.053-2.549-.283-2.337,3.4.354,7.081-.779,7.86-5.877a6.282,6.282,0,0,0-1.629-5.665,10.659,10.659,0,0,0-6.019-2.549,24.712,24.712,0,0,0-3.965,0c.071,9.913.142,14.87.212,24.783a4.947,4.947,0,0,0,1.275,3.4,8.772,8.772,0,0,0,2.337,1.487,1.041,1.041,0,0,1,.566,1.133C147.985,51.667,147.136,52.092,145.719,51.95Z" transform="translate(-37.95 -5.075)" fill="#fff" fill-rule="evenodd"/>
  <path id="Контур_16000" data-name="Контур 16000" d="M180.9,18.9c2.266.142,2.124,1.2,10.48,1.912,4.319.354,11.966,1.275,15.578,2.053,2.761.637,3.328,2.2,2.549,3.186-.708.92-2.124,2.691-3.328,4.248a1.286,1.286,0,0,1-2.266-1.062,3.963,3.963,0,0,0-3.045-4.178c-2.974-.566-4.957-.85-8-1.275-.637,4.532-.991,6.8-1.7,11.4,1.912.283,2.9.425,4.815.779,3.045.425,4.532.637,5.806-1.2.566-.779,1.841-.425,1.558.637a39.54,39.54,0,0,0-1.062,5.169,4.538,4.538,0,0,1-.566,2.124c-.5.708-1.558.212-1.77-.92-.283-1.133-1.629-2.407-3.824-2.761-2.124-.354-3.257-.566-5.381-.85-.354,2.407-.5,3.611-.85,5.948-.425,2.761-.283,4.532.142,5.594a3.052,3.052,0,0,0,2.124,1.841,14.542,14.542,0,0,0,3.824.708,7.262,7.262,0,0,0,5.948-1.629c1.7-1.416,2.832-.566,2.337.566-1.77,4.107-3.54,5.1-5.594,5.027a12.861,12.861,0,0,1-3.257-.779A44.6,44.6,0,0,0,185,53.238c-1.983-.212-4.39,0-6.656-.071-1.416-.071-2.407-.425-2.549-.921-.071-.708.637-.779,1.133-.991,3.186-1.062,4.532-4.532,4.815-6.868.779-6.089,1.133-9.134,1.841-15.224.142-1.7.566-4.178-.354-5.877a5.006,5.006,0,0,0-2.691-1.983,1.992,1.992,0,0,1-1.275-1.7A1.583,1.583,0,0,1,180.9,18.9" transform="translate(-51.318 -5.514)" fill="#fff" fill-rule="evenodd"/>
  <path id="Контур_16001" data-name="Контур 16001" d="M247.372,64.749a15.69,15.69,0,0,1-10.9.283,18.069,18.069,0,0,1-10.2-8,19.405,19.405,0,0,1-2.053-13.737c1.133-5.169,3.894-8.568,7.576-10.48a19.891,19.891,0,0,1,12.745-1.487c4.39.779,9.063,2.691,11.612,6.585a12.658,12.658,0,0,1,1.7,3.965,14.146,14.146,0,0,1,.354,1.841,3.042,3.042,0,0,1-4.248,2.974c-2.549-1.133-1.275-4.107-1.416-5.735a6.237,6.237,0,0,0-1.487-2.974,9.383,9.383,0,0,0-5.311-2.832c-5.665-1.416-11.542,3.824-13.1,10.125-2.2,8.5,1.2,15.011,6.443,16.781a8.834,8.834,0,0,0,6.727-.354,22.147,22.147,0,0,0,5.948-4.178,1.3,1.3,0,0,1,2.124,1.345C253.107,61.28,249.5,63.9,247.372,64.749Z" transform="translate(-65.326 -9.024)" fill="#fff" fill-rule="evenodd"/>
  <path id="Контур_16002" data-name="Контур 16002" d="M276.737,40.474A2.39,2.39,0,0,1,279.074,38a2.345,2.345,0,0,1,2.407,2.407,2.391,2.391,0,0,1-2.337,2.478,2.345,2.345,0,0,1-2.407-2.407m2.407,2.9a2.846,2.846,0,0,0,2.9-2.974,2.974,2.974,0,1,0-2.9,2.974m-.708-2.691H279l.921,1.416h.566l-.92-1.416a.878.878,0,0,0,.85-.92c0-.637-.425-.92-1.2-.92h-1.275v3.4h.5Zm0-.425V39.2h.708c.354,0,.708.071.708.5,0,.5-.425.566-.85.566Z" transform="translate(-80.6 -10.947)" fill="#fff"/>
</svg>
