<svg id="viber_" data-name="viber " xmlns="http://www.w3.org/2000/svg" width="23.698" height="25.875" viewBox="0 0 23.698 25.875">
  <path id="Контур_12736" data-name="Контур 12736" d="M24.836,14.966c.771-6.492-.371-10.591-2.43-12.445h0C19.083-.645,7.856-1.114,3.879,2.663,2.093,4.51,1.464,7.221,1.4,10.578s-.151,9.647,5.71,11.354h.005l-.005,2.606s-.04,1.056.634,1.268c.771.25,1.12-.24,3.519-3.106a21.952,21.952,0,0,0,7.442-.566c.81-.271,5.393-.878,6.135-7.168Zm-13.182,5.9s-2.539,3.166-3.329,3.988c-.259.267-.542.242-.538-.288,0-.348.019-4.326.019-4.326-4.969-1.424-4.676-6.78-4.622-9.582s.567-5.1,2.079-6.644C8.753.743,18.6,1.475,21.1,3.832c3.066,2.718,1.974,10.4,1.981,10.658-.63,5.25-4.344,5.583-5.027,5.81a20.252,20.252,0,0,1-6.4.567Z" transform="translate(-1.38 0.013)" fill="#675dac"/>
  <path id="Контур_12737" data-name="Контур 12737" d="M12.244,4.3a.326.326,0,0,0,0,.652c3.218.025,5.867,2.267,5.9,6.381a.315.315,0,1,0,.63-.005h0C18.735,6.892,15.842,4.322,12.244,4.3Z" transform="translate(-0.565 0.346)" fill="#675dac"/>
  <path id="Контур_12738" data-name="Контур 12738" d="M16.437,10.527a.315.315,0,1,0,.63.015,4.363,4.363,0,0,0-4.286-4.67.327.327,0,0,0-.044.652,3.719,3.719,0,0,1,3.7,4Z" transform="translate(-0.526 0.467)" fill="#675dac"/>
  <path id="Контур_12739" data-name="Контур 12739" d="M16.238,13.375a1,1,0,0,0-1.3.186l-.469.606a.838.838,0,0,1-.683.267,6.252,6.252,0,0,1-4.115-4.256.906.906,0,0,1,.257-.707l.586-.485a1.079,1.079,0,0,0,.18-1.343A14,14,0,0,0,9.092,5.326a.867.867,0,0,0-1.166-.2h-.01c-.932.545-1.952,1.565-1.625,2.615.557,1.107,1.58,4.637,4.842,7.3A18.62,18.62,0,0,0,16.122,17.9l.01.015c1.015.338,2-.722,2.528-1.681v-.008a.924.924,0,0,0-.185-1.191,12.7,12.7,0,0,0-2.236-1.661Z" transform="translate(-1.005 0.399)" fill="#675dac"/>
  <path id="Контур_12740" data-name="Контур 12740" d="M13.19,8.151c1.035.06,1.537.6,1.591,1.712a.316.316,0,1,0,.63-.03A2.162,2.162,0,0,0,13.225,7.5a.327.327,0,0,0-.034.652Z" transform="translate(-0.491 0.593)" fill="#675dac"/>
</svg>
